<!DOCTYPE svg PUBLIC "-//W3C//DTD SVG 1.1//EN" "http://www.w3.org/Graphics/SVG/1.1/DTD/svg11.dtd">
<!-- Uploaded to: SVG Repo, www.svgrepo.com, Transformed by: SVG Repo Mixer Tools -->
<svg version="1.1" id="Layer_1" xmlns="http://www.w3.org/2000/svg" xmlns:xlink="http://www.w3.org/1999/xlink" viewBox="0 0 512 512" xml:space="preserve" width="800px" height="800px" fill="#000000">
<g id="SVGRepo_bgCarrier" stroke-width="0"/>
<g id="SVGRepo_tracerCarrier" stroke-linecap="round" stroke-linejoin="round"/>
<g id="SVGRepo_iconCarrier"> <circle style="fill:#5f54f2;" cx="256" cy="256" r="256"/> <g> <path style="fill:#FFFFFF;" d="M433.2,286.88H238.96c-9.68,0-17.68-7.92-17.68-17.68V145.68c0-9.68,7.92-17.68,17.68-17.68H433.2 c9.68,0,17.68,7.92,17.68,17.68v123.6C450.8,278.96,442.88,286.88,433.2,286.88z"/> <polygon style="fill:#FFFFFF;" points="397.84,339.84 397.84,269.28 309.6,269.28 "/> </g> <path d="M78.96,375.2H273.2c9.68,0,17.68-7.92,17.68-17.68v-123.6c0-9.68-7.92-17.68-17.68-17.68H78.96 c-9.68,0-17.68,7.92-17.68,17.68v123.6C61.36,367.2,69.28,375.2,78.96,375.2z"/> <polygon points="114.32,428.16 114.32,357.52 202.56,357.52 "/> <g> <rect x="167.28" y="269.28" style="fill:#FFFFFF;" width="17.68" height="17.68"/> <rect x="131.92" y="269.28" style="fill:#FFFFFF;" width="17.68" height="17.68"/> <rect x="96.64" y="269.28" style="fill:#FFFFFF;" width="17.68" height="17.68"/> <rect x="202.56" y="269.28" style="fill:#FFFFFF;" width="17.68" height="17.68"/> <rect x="237.84" y="269.28" style="fill:#FFFFFF;" width="17.68" height="17.68"/> <rect x="167.28" y="304.56" style="fill:#FFFFFF;" width="17.68" height="17.68"/> <rect x="131.92" y="304.56" style="fill:#FFFFFF;" width="17.68" height="17.68"/> <rect x="96.64" y="304.56" style="fill:#FFFFFF;" width="17.68" height="17.68"/> </g> <rect x="327.28" y="180.96" width="17.68" height="17.68"/> <rect x="291.92" y="180.96" width="17.68" height="17.68"/> <rect x="256.64" y="180.96" width="17.68" height="17.68"/> <rect x="362.56" y="180.96" width="17.68" height="17.68"/> <rect x="397.84" y="180.96" width="17.68" height="17.68"/> <rect x="327.28" y="216.24" width="17.68" height="17.68"/> <rect x="362.56" y="216.24" width="17.68" height="17.68"/> <rect x="397.84" y="216.24" width="17.68" height="17.68"/> </g>
</svg>